<?xml version="1.0" encoding="utf-8"?>
<!-- Generator: Adobe Illustrator 24.0.3, SVG Export Plug-In . SVG Version: 6.00 Build 0)  -->
<svg version="1.1" id="Layer_1" xmlns="http://www.w3.org/2000/svg" xmlns:xlink="http://www.w3.org/1999/xlink" x="0px" y="0px"
	 width="125.90551px" height="48.90551px" viewBox="0 0 125.90551 48.90551" style="enable-background:new 0 0 125.90551 48.90551;"
	 xml:space="preserve">
<style type="text/css">
	.st0{fill:none;}
	.st1{fill:#FFFFFF;}
	.st2{font-family:'BenchNine-Bold';}
	.st3{font-size:31.83481px;}
	.st4{fill:#3878E8;}
	.st5{opacity:0.27;enable-background:new    ;}
	.st6{fill:#ED6E8F;}
	.st7{fill:#5F81ED;}
	.st8{fill:#BF63EA;}
	.st9{fill:#36D8D8;}
	.st10{fill:#82ED64;}
	.st11{font-size:30.97254px;}
</style>
<rect x="64.6027" y="2.83333" class="st0" width="55.84405" height="23.56634"/>
<text transform="matrix(1 0 0 1 64.60352 25.03124)" class="st1 st2 st3">Ina K.</text>
<polygon class="st4" points="11.86865,24.86815 7.59082,23.03222 11.90332,21.17968 10.93359,19.10058 4.5083,22.09667 
	4.5083,24.01952 10.89893,26.98144 "/>
<polygon class="st5" points="11.86865,24.86815 7.59082,23.03222 11.90332,21.17968 10.93359,19.10058 4.5083,22.09667 
	4.5083,24.01952 10.89893,26.98144 "/>
<polygon class="st4" points="16.42236,16.43358 12.94141,31.10253 15.53906,31.10253 19.02002,16.43358 "/>
<polygon class="st5" points="16.42236,16.43358 12.94141,31.10253 15.53906,31.10253 19.02002,16.43358 "/>
<polygon class="st4" points="20.04102,21.17968 24.35303,23.03222 20.07568,24.86815 21.04541,26.98144 27.43604,24.01952 
	27.43604,22.09667 21.01074,19.10058 "/>
<polygon class="st5" points="20.04102,21.17968 24.35303,23.03222 20.07568,24.86815 21.04541,26.98144 27.43604,24.01952 
	27.43604,22.09667 21.01074,19.10058 "/>
<polygon class="st4" points="15.66357,7.96825 11.38574,6.13231 15.69824,4.27929 14.72852,2.20116 8.30322,5.19726 
	8.30322,7.11962 14.69385,10.08104 "/>
<polygon class="st5" points="15.66357,7.96825 11.38574,6.13231 15.69824,4.27929 14.72852,2.20116 8.30322,5.19726 
	8.30322,7.11962 14.69385,10.08104 "/>
<polygon class="st4" points="19.33398,14.20311 22.66388,0.17077 20.06622,0.17077 16.73633,14.20311 "/>
<polygon class="st5" points="19.33398,14.20311 22.66388,0.17077 20.06622,0.17077 16.73633,14.20311 "/>
<polygon class="st4" points="23.83594,4.27929 28.14795,6.13231 23.87061,7.96825 24.84033,10.08104 31.23096,7.11962 
	31.23096,5.19726 24.80566,2.20116 "/>
<polygon class="st5" points="23.83594,4.27929 28.14795,6.13231 23.87061,7.96825 24.84033,10.08104 31.23096,7.11962 
	31.23096,5.19726 24.80566,2.20116 "/>
<polygon class="st4" points="7.10742,35.99999 0.68213,38.99608 0.68213,40.91894 7.07275,43.88085 8.04248,41.76757 
	3.76465,39.93163 8.07715,38.07811 "/>
<polygon class="st5" points="7.10742,35.99999 0.68213,38.99608 0.68213,40.91894 7.07275,43.88085 8.04248,41.76757 
	3.76465,39.93163 8.07715,38.07811 "/>
<polygon class="st4" points="9.11523,48.00194 11.71289,48.00194 15.19385,33.333 12.59619,33.333 "/>
<polygon class="st5" points="9.11523,48.00194 11.71289,48.00194 15.19385,33.333 12.59619,33.333 "/>
<polygon class="st4" points="16.21484,38.07811 20.52686,39.93163 16.24951,41.76757 17.21924,43.88085 23.60986,40.91894 
	23.60986,38.99608 17.18457,35.99999 "/>
<polygon class="st5" points="16.21484,38.07811 20.52686,39.93163 16.24951,41.76757 17.21924,43.88085 23.60986,40.91894 
	23.60986,38.99608 17.18457,35.99999 "/>
<polygon class="st5" points="41.28766,0.17077 41.22699,0.17077 41.26514,0.19689 "/>
<path class="st6" d="M29.80951,43.90307l-7.82373,1.46503c0.1557,1.1001,0.34589,2.18762,0.55389,3.26825h19.6546
	c-0.79315-2.90857-1.32965-5.93097-1.56232-9.0498c-0.00568-0.07611-0.00879-0.15179-0.0141-0.22784l-11.08569,0.8269
	L29.80951,43.90307z"/>
<path class="st5" d="M29.80951,43.90307l-7.82373,1.46503c0.1557,1.1001,0.34589,2.18762,0.55389,3.26825h19.6546
	c-0.79315-2.90857-1.32965-5.93097-1.56232-9.0498c-0.00568-0.07611-0.00879-0.15179-0.0141-0.22784l-11.08569,0.8269
	L29.80951,43.90307z"/>
<path class="st7" d="M33.63269,13.58501l-7.49854-2.63977c-1.04865,2.60516-1.93787,5.28735-2.65546,8.03442l7.60706,2.33643
	l-0.70959,3.74316l10.89691,2.37604c0.7915-4.33392,2.17346-8.47913,4.06519-12.34167l-10.08887-4.86279L33.63269,13.58501z"/>
<path class="st5" d="M33.63269,13.58501l-7.49854-2.63977c-1.04865,2.60516-1.93787,5.28735-2.65546,8.03442l7.60706,2.33643
	l-0.70959,3.74316l10.89691,2.37604c0.7915-4.33392,2.17346-8.47913,4.06519-12.34167l-10.08887-4.86279L33.63269,13.58501z"/>
<path class="st8" d="M29.72534,28.49236l-7.93292-0.6095c-0.33197,2.77295-0.49438,5.59277-0.47388,8.44855l7.94763,0.28784
	l0.26599,3.56635l11.08569-0.8269c-0.28503-4.07959-0.04755-8.07587,0.65521-11.9234l-10.89691-2.37604L29.72534,28.49236z"/>
<path class="st5" d="M29.72534,28.49236l-7.93292-0.6095c-0.33197,2.77295-0.49438,5.59277-0.47388,8.44855l7.94763,0.28784
	l0.26599,3.56635l11.08569-0.8269c-0.28503-4.07959-0.04755-8.07587,0.65521-11.9234l-10.89691-2.37604L29.72534,28.49236z"/>
<path class="st9" d="M41.28766,0.17077l-0.02252,0.02612l-0.03815-0.02612h-9.56732
	c-0.5448,0.86176-1.07715,1.73181-1.58282,2.61884l6.72723,4.21576l-1.55469,3.22546l10.08887,4.86279
	c1.84991-3.77716,4.18719-7.28363,6.93561-10.43201l-5.12622-4.49084C47.14764,0.17078,41.28766,0.17078,41.28766,0.17077z"/>
<path class="st5" d="M41.28766,0.17077l-0.02252,0.02612l-0.03815-0.02612h-9.56732
	c-0.5448,0.86176-1.07715,1.73181-1.58282,2.61884l6.72723,4.21576l-1.55469,3.22546l10.08887,4.86279
	c1.84991-3.77716,4.18719-7.28363,6.93561-10.43201l-5.12622-4.49084C47.14764,0.17078,41.28766,0.17078,41.28766,0.17077z"/>
<path class="st10" d="M52.27386,4.66161c1.39136-1.59387,2.89166-3.09204,4.48407-4.49084h-9.61029L52.27386,4.66161z"/>
<path class="st5" d="M52.27386,4.66161c1.39136-1.59387,2.89166-3.09204,4.48407-4.49084h-9.61029L52.27386,4.66161z"/>
<path d="M56.75793,0.17077h0.2088l0.04443-0.20984C56.92834,0.0327,56.84027,0.0985,56.75793,0.17077z"/>
<path class="st5" d="M56.75793,0.17077h0.2088l0.04443-0.20984C56.92834,0.0327,56.84027,0.0985,56.75793,0.17077z"/>
<text transform="matrix(1 0 0 1 45.78369 17.35937)" class="st1 st2 st11"> </text>
<text transform="matrix(1 0 0 1 45.78369 46.85742)" class="st1 st2 st11">Tho</text>
<text transform="matrix(1 0 0 1 78.36816 46.85742)" class="st1 st2 st11">r</text>
<text transform="matrix(1 0 0 1 85.27148 46.85742)" class="st1 st2 st11">esen</text>
</svg>
