<?xml version="1.0" encoding="utf-8"?>
<!-- Generator: Adobe Illustrator 24.0.3, SVG Export Plug-In . SVG Version: 6.00 Build 0)  -->
<svg version="1.1" id="Layer_1" xmlns="http://www.w3.org/2000/svg" xmlns:xlink="http://www.w3.org/1999/xlink" x="0px" y="0px"
	 width="125.90551px" height="48.90551px" viewBox="0 0 125.90551 48.90551" style="enable-background:new 0 0 125.90551 48.90551;"
	 xml:space="preserve">
<style type="text/css">
	.st0{fill:none;}
	.st1{enable-background:new    ;}
	.st2{fill:#FFFFFF;}
	.st3{fill:#3878E8;}
	.st4{opacity:0.27;enable-background:new    ;}
	.st5{fill:#ED6E8F;}
	.st6{fill:#5F81ED;}
	.st7{fill:#BF63EA;}
	.st8{fill:#36D8D8;}
	.st9{fill:#82ED64;}
</style>
<rect x="64.6027" y="2.83333" class="st0" width="55.84405" height="23.56634"/>
<g class="st1">
	<path class="st2" d="M66.82617,25.03149c-0.09277,0-0.16504-0.0127-0.2168-0.03906
		c-0.05273-0.02539-0.09668-0.0957-0.13281-0.20996c-0.03613-0.11328-0.05371-0.27441-0.05371-0.48145V3.40942
		c0-0.30078,0.0332-0.49707,0.10059-0.59082c0.06738-0.09277,0.16797-0.13965,0.30273-0.13965h2.28516
		c0.08301,0,0.15039,0.0127,0.20215,0.03906c0.05176,0.02539,0.0957,0.0957,0.13281,0.20898
		C69.48242,3.04125,69.5,3.20239,69.5,3.40942v20.8916c0,0.30078-0.03125,0.49707-0.09277,0.59082
		c-0.0625,0.09277-0.16113,0.13965-0.2959,0.13965H66.82617z"/>
	<path class="st2" d="M73.29297,25.03149c-0.12402,0-0.21973-0.04883-0.28711-0.14746
		c-0.06836-0.09863-0.10156-0.30371-0.10156-0.61426V10.32641c0-0.62207,0.12402-0.93262,0.37305-0.93262h0.66895
		c0.14453,0,0.26367,0.04688,0.35742,0.13965c0.09277,0.09375,0.16504,0.29102,0.21777,0.59082l0.31055,1.95898
		c0.02051,0.11426,0.05664,0.1709,0.1084,0.1709c0.04199,0,0.07227-0.05176,0.09375-0.15527
		c0.17578-0.60156,0.40137-1.10352,0.67578-1.50781s0.57812-0.70215,0.90918-0.89453
		c0.33203-0.19141,0.64551-0.32031,0.94043-0.3877c0.2959-0.06738,0.625-0.10156,0.9873-0.10156
		c0.57031,0,1.0625,0.10352,1.47656,0.31055c0.41504,0.20801,0.78516,0.55762,1.11133,1.0498
		c0.32715,0.49219,0.57324,1.18652,0.73926,2.08301c0.16504,0.89648,0.24805,1.99219,0.24805,3.28711v8.33203
		c0,0.31055-0.03125,0.51562-0.09277,0.61426c-0.0625,0.09863-0.16113,0.14746-0.2959,0.14746h-1.98926
		c-0.13477,0-0.2334-0.04883-0.2959-0.14746c-0.06152-0.09863-0.09277-0.30371-0.09277-0.61426v-8.67383
		c0-1.46094-0.11133-2.53906-0.33398-3.2334c-0.22363-0.69336-0.58887-1.04102-1.09668-1.04102
		c-0.64258,0-1.17578,0.41699-1.60059,1.25098c-0.4248,0.83496-0.6377,1.87891-0.6377,3.13281v8.56445
		c0,0.31055-0.0332,0.51562-0.10059,0.61426s-0.16309,0.14746-0.28809,0.14746H73.29297z"/>
	<path class="st2" d="M87.99805,25.21801c-1.02539,0-1.82129-0.33105-2.38574-0.99512
		c-0.56543-0.66309-0.84766-1.62695-0.84766-2.89062c0-0.94336,0.14258-1.7666,0.42773-2.47168s0.64258-1.23828,1.07227-1.60156
		c0.43066-0.3623,0.9043-0.66309,1.42285-0.90137c0.51758-0.23828,1-0.39355,1.44531-0.46582
		c0.44531-0.07324,0.83691-0.14258,1.17383-0.20996s0.53125-0.1377,0.58301-0.20996V14.6477
		c0-1.1084-0.12207-1.94043-0.36523-2.49512c-0.24414-0.55371-0.68652-0.83105-1.3291-0.83105
		c-0.53906,0-0.95117,0.16797-1.23633,0.50488s-0.52539,0.85254-0.72266,1.54688c-0.09277,0.29004-0.21777,0.4248-0.37305,0.4043
		c-1.08789-0.26953-1.6377-0.44531-1.64746-0.52832c-0.0625-0.03125-0.0957-0.15039-0.10156-0.35742
		c-0.00488-0.20801,0.01855-0.39941,0.07031-0.5752c0.26953-1.01562,0.73047-1.78516,1.38379-2.30859
		c0.65234-0.52344,1.58496-0.78516,2.79785-0.78516c0.65234,0,1.21973,0.10645,1.70215,0.31836
		c0.48145,0.21289,0.9043,0.5625,1.2666,1.0498s0.63477,1.14746,0.81641,1.98145c0.18066,0.83496,0.27148,1.85254,0.27148,3.05469
		v8.62695c0,0.52832-0.1084,0.79297-0.32617,0.79297h-0.49707c-0.18652,0-0.35254-0.22754-0.49805-0.68359
		c-0.02051-0.10352-0.12207-0.44043-0.30273-1.01074c-0.18164-0.57031-0.28223-0.91211-0.30273-1.02637
		c-0.01074-0.03027-0.02344-0.05176-0.03906-0.06152c-0.01562-0.01074-0.03418-0.01074-0.05469,0
		c-0.02051,0.00977-0.03125,0.03125-0.03125,0.06152c-0.2793,0.9541-0.68164,1.67383-1.2041,2.16113
		C89.64355,24.97485,88.91992,25.21801,87.99805,25.21801z M88.54199,23.22875c0.72559,0,1.30859-0.47656,1.74902-1.43066
		c0.44043-0.95312,0.66016-2.09277,0.66016-3.41992c0-0.78711-0.0459-1.18066-0.13965-1.18066
		c-0.18652,0-0.3418,0.03027-0.46582,0.09277c-1.11914,0.28027-1.94141,0.73633-2.46387,1.36816
		c-0.52344,0.63184-0.78516,1.45605-0.78516,2.47168C87.09668,22.52856,87.57812,23.22875,88.54199,23.22875z"/>
	<path class="st2" d="M101.07129,25.03149c-0.25977,0-0.38867-0.28027-0.38867-0.83984V3.51782
		c0-0.55957,0.12891-0.83887,0.38867-0.83887h2.26953c0.26855,0,0.40332,0.2793,0.40332,0.83887v10.24414l3.80859-10.29004
		c0.18652-0.5293,0.40918-0.79297,0.66895-0.79297h2.2998c0.21777,0,0.32715,0.11914,0.32715,0.35742
		c0,0.14551-0.03125,0.29492-0.09375,0.4502l-3.76172,9.57617c-0.07227,0.24805-0.1084,0.44043-0.1084,0.5752
		s0.02051,0.2793,0.06152,0.43457l4.01074,10.10449c0.07227,0.18652,0.1084,0.35156,0.1084,0.49707
		c0,0.23828-0.06738,0.35742-0.20117,0.35742h-2.26953c-0.28027,0-0.52344-0.26953-0.73047-0.80859l-4.10449-9.73047v9.73047
		c0,0.53906-0.13965,0.80859-0.41895,0.80859H101.07129z"/>
	<path class="st2" d="M113.39746,25.03149c-0.26953,0-0.4043-0.26465-0.4043-0.79297v-2.3623
		c0-0.51855,0.13477-0.77734,0.4043-0.77734h2.12988c0.2793,0,0.41895,0.25879,0.41895,0.77734v2.3623
		c0,0.52832-0.13965,0.79297-0.41895,0.79297H113.39746z"/>
</g>
<polygon class="st3" points="11.86865,24.86815 7.59082,23.03222 11.90332,21.17968 10.93359,19.10058 4.5083,22.09667 
	4.5083,24.01952 10.89893,26.98144 "/>
<polygon class="st4" points="11.86865,24.86815 7.59082,23.03222 11.90332,21.17968 10.93359,19.10058 4.5083,22.09667 
	4.5083,24.01952 10.89893,26.98144 "/>
<polygon class="st3" points="16.42236,16.43358 12.94141,31.10253 15.53906,31.10253 19.02002,16.43358 "/>
<polygon class="st4" points="16.42236,16.43358 12.94141,31.10253 15.53906,31.10253 19.02002,16.43358 "/>
<polygon class="st3" points="20.04102,21.17968 24.35303,23.03222 20.07568,24.86815 21.04541,26.98144 27.43604,24.01952 
	27.43604,22.09667 21.01074,19.10058 "/>
<polygon class="st4" points="20.04102,21.17968 24.35303,23.03222 20.07568,24.86815 21.04541,26.98144 27.43604,24.01952 
	27.43604,22.09667 21.01074,19.10058 "/>
<polygon class="st3" points="15.66357,7.96825 11.38574,6.13231 15.69824,4.27929 14.72852,2.20116 8.30322,5.19726 
	8.30322,7.11962 14.69385,10.08104 "/>
<polygon class="st4" points="15.66357,7.96825 11.38574,6.13231 15.69824,4.27929 14.72852,2.20116 8.30322,5.19726 
	8.30322,7.11962 14.69385,10.08104 "/>
<polygon class="st3" points="19.33398,14.20311 22.66388,0.17077 20.06622,0.17077 16.73633,14.20311 "/>
<polygon class="st4" points="19.33398,14.20311 22.66388,0.17077 20.06622,0.17077 16.73633,14.20311 "/>
<polygon class="st3" points="23.83594,4.27929 28.14795,6.13231 23.87061,7.96825 24.84033,10.08104 31.23096,7.11962 
	31.23096,5.19726 24.80566,2.20116 "/>
<polygon class="st4" points="23.83594,4.27929 28.14795,6.13231 23.87061,7.96825 24.84033,10.08104 31.23096,7.11962 
	31.23096,5.19726 24.80566,2.20116 "/>
<polygon class="st3" points="7.10742,35.99999 0.68213,38.99608 0.68213,40.91894 7.07275,43.88085 8.04248,41.76757 
	3.76465,39.93163 8.07715,38.07811 "/>
<polygon class="st4" points="7.10742,35.99999 0.68213,38.99608 0.68213,40.91894 7.07275,43.88085 8.04248,41.76757 
	3.76465,39.93163 8.07715,38.07811 "/>
<polygon class="st3" points="9.11523,48.00194 11.71289,48.00194 15.19385,33.333 12.59619,33.333 "/>
<polygon class="st4" points="9.11523,48.00194 11.71289,48.00194 15.19385,33.333 12.59619,33.333 "/>
<polygon class="st3" points="16.21484,38.07811 20.52686,39.93163 16.24951,41.76757 17.21924,43.88085 23.60986,40.91894 
	23.60986,38.99608 17.18457,35.99999 "/>
<polygon class="st4" points="16.21484,38.07811 20.52686,39.93163 16.24951,41.76757 17.21924,43.88085 23.60986,40.91894 
	23.60986,38.99608 17.18457,35.99999 "/>
<polygon class="st4" points="41.28766,0.17077 41.22699,0.17077 41.26514,0.19689 "/>
<path class="st5" d="M29.80951,43.90307l-7.82373,1.46503c0.1557,1.1001,0.34589,2.18762,0.55389,3.26825h19.6546
	c-0.79315-2.90857-1.32965-5.93097-1.56232-9.0498c-0.00568-0.07611-0.00879-0.15179-0.0141-0.22784l-11.08569,0.8269
	L29.80951,43.90307z"/>
<path class="st4" d="M29.80951,43.90307l-7.82373,1.46503c0.1557,1.1001,0.34589,2.18762,0.55389,3.26825h19.6546
	c-0.79315-2.90857-1.32965-5.93097-1.56232-9.0498c-0.00568-0.07611-0.00879-0.15179-0.0141-0.22784l-11.08569,0.8269
	L29.80951,43.90307z"/>
<path class="st6" d="M33.63269,13.58501l-7.49854-2.63977c-1.04865,2.60516-1.93787,5.28735-2.65546,8.03442l7.60706,2.33643
	l-0.70959,3.74316l10.89691,2.37604c0.7915-4.33392,2.17346-8.47913,4.06519-12.34167l-10.08887-4.86279L33.63269,13.58501z"/>
<path class="st4" d="M33.63269,13.58501l-7.49854-2.63977c-1.04865,2.60516-1.93787,5.28735-2.65546,8.03442l7.60706,2.33643
	l-0.70959,3.74316l10.89691,2.37604c0.7915-4.33392,2.17346-8.47913,4.06519-12.34167l-10.08887-4.86279L33.63269,13.58501z"/>
<path class="st7" d="M29.72534,28.49236l-7.93292-0.6095c-0.33197,2.77295-0.49438,5.59277-0.47388,8.44855l7.94763,0.28784
	l0.26599,3.56635l11.08569-0.8269c-0.28503-4.07959-0.04755-8.07587,0.65521-11.9234l-10.89691-2.37604L29.72534,28.49236z"/>
<path class="st4" d="M29.72534,28.49236l-7.93292-0.6095c-0.33197,2.77295-0.49438,5.59277-0.47388,8.44855l7.94763,0.28784
	l0.26599,3.56635l11.08569-0.8269c-0.28503-4.07959-0.04755-8.07587,0.65521-11.9234l-10.89691-2.37604L29.72534,28.49236z"/>
<path class="st8" d="M41.28766,0.17077l-0.02252,0.02612l-0.03815-0.02612h-9.56732
	c-0.5448,0.86176-1.07715,1.73181-1.58282,2.61884l6.72723,4.21576l-1.55469,3.22546l10.08887,4.86279
	c1.84991-3.77716,4.18719-7.28363,6.93561-10.43201l-5.12622-4.49084C47.14764,0.17078,41.28766,0.17078,41.28766,0.17077z"/>
<path class="st4" d="M41.28766,0.17077l-0.02252,0.02612l-0.03815-0.02612h-9.56732
	c-0.5448,0.86176-1.07715,1.73181-1.58282,2.61884l6.72723,4.21576l-1.55469,3.22546l10.08887,4.86279
	c1.84991-3.77716,4.18719-7.28363,6.93561-10.43201l-5.12622-4.49084C47.14764,0.17078,41.28766,0.17078,41.28766,0.17077z"/>
<path class="st9" d="M52.27386,4.66161c1.39136-1.59387,2.89166-3.09204,4.48407-4.49084h-9.61029L52.27386,4.66161z"/>
<path class="st4" d="M52.27386,4.66161c1.39136-1.59387,2.89166-3.09204,4.48407-4.49084h-9.61029L52.27386,4.66161z"/>
<path d="M56.75793,0.17077h0.2088l0.04443-0.20984C56.92834,0.0327,56.84027,0.0985,56.75793,0.17077z"/>
<path class="st4" d="M56.75793,0.17077h0.2088l0.04443-0.20984C56.92834,0.0327,56.84027,0.0985,56.75793,0.17077z"/>
<g class="st1">
	<path class="st2" d="M49.71582,46.85766c-0.12109,0-0.21436-0.04785-0.27979-0.14355
		c-0.06592-0.0957-0.09814-0.29004-0.09814-0.58203V27.92309c0-0.25195-0.05566-0.37793-0.1665-0.37793h-2.63135
		c-0.10107,0-0.17432-0.00781-0.21924-0.02246c-0.04541-0.01562-0.08594-0.06543-0.12109-0.15137
		c-0.03564-0.08594-0.05322-0.21973-0.05322-0.40039v-1.19531c0-0.27246,0.03027-0.45117,0.09082-0.53711
		c0.06055-0.08496,0.16113-0.12793,0.30273-0.12793h8.54443c0.13086,0,0.22705,0.04297,0.2876,0.12793
		c0.06006,0.08594,0.09033,0.26465,0.09033,0.53711v1.19531c0,0.25195-0.02783,0.41016-0.08301,0.47559
		c-0.05566,0.06641-0.15381,0.09863-0.29492,0.09863h-2.58594c-0.11133,0-0.1665,0.12598-0.1665,0.37793v18.20898
		c0,0.30176-0.03271,0.49902-0.09814,0.58984c-0.06592,0.09082-0.16406,0.13574-0.29492,0.13574H49.71582z"/>
	<path class="st2" d="M57.77637,46.85766c-0.13086,0-0.229-0.04785-0.29492-0.14355
		c-0.06543-0.0957-0.09814-0.29492-0.09814-0.59766V25.927c0-0.53418,0.13086-0.80176,0.39307-0.80176h1.9209
		c0.25195,0,0.37793,0.26758,0.37793,0.80176v7.65234c0,0.15137,0.02539,0.22656,0.07568,0.22656
		c0.03027,0,0.06543-0.03027,0.10596-0.09082c0.3125-0.77539,0.73584-1.3457,1.27051-1.70898
		c0.53418-0.3623,1.07373-0.54394,1.61816-0.54394c0.49365,0,0.92285,0.10547,1.28516,0.31738
		c0.36328,0.21191,0.69043,0.56543,0.9834,1.05859c0.29199,0.49414,0.51367,1.1875,0.66504,2.08008
		c0.15137,0.8916,0.22754,1.97852,0.22754,3.25879v7.93945c0,0.30273-0.0332,0.50195-0.09863,0.59766
		s-0.15918,0.14355-0.28027,0.14355h-1.93555c-0.13086,0-0.22656-0.04785-0.28711-0.14355s-0.09082-0.29492-0.09082-0.59766
		v-8.25684c0-1.55273-0.10596-2.66406-0.31787-3.33496c-0.21143-0.6709-0.57959-1.00586-1.104-1.00586
		c-0.59473,0-1.09619,0.41602-1.50439,1.24805c-0.40869,0.83105-0.61279,1.89746-0.61279,3.19824v8.15137
		c0,0.30273-0.03027,0.50195-0.09082,0.59766c-0.06006,0.0957-0.15088,0.14355-0.27197,0.14355H57.77637z"/>
	<path class="st2" d="M74.38184,46.97875c-0.25293,0.03027-0.54395,0.04492-0.87793,0.04492
		c-0.33203,0-0.62695-0.01465-0.88379-0.04492s-0.55176-0.10645-0.88477-0.22656c-0.33301-0.12109-0.62305-0.28809-0.87012-0.49902
		c-0.24609-0.21191-0.50195-0.51465-0.76367-0.9082c-0.26172-0.39258-0.47363-0.85645-0.63477-1.39062
		c-0.16211-0.53418-0.29492-1.20801-0.40039-2.01953c-0.10645-0.81152-0.15918-1.72168-0.15918-2.72949
		s0.05273-1.91309,0.15918-2.71484c0.10547-0.80176,0.24414-1.46875,0.41602-2.00391
		c0.1709-0.53418,0.38672-0.99512,0.65039-1.38379c0.26172-0.3877,0.51562-0.68555,0.76367-0.8916
		c0.24609-0.20703,0.53906-0.36816,0.87695-0.48437s0.62891-0.18945,0.87695-0.21973
		c0.24609-0.03027,0.53125-0.04492,0.85352-0.04492c0.32324,0,0.60742,0.01465,0.85547,0.04492
		c0.24609,0.03027,0.53711,0.10352,0.86914,0.21973c0.33301,0.11621,0.62305,0.27734,0.86914,0.48437
		c0.24805,0.20605,0.50195,0.50391,0.76367,0.8916c0.2627,0.38867,0.47656,0.84961,0.64355,1.38379
		c0.16602,0.53516,0.30176,1.20215,0.4082,2.00391s0.15918,1.70703,0.15918,2.71484s-0.05273,1.91797-0.15918,2.72949
		s-0.23926,1.48535-0.40137,2.01953c-0.16016,0.53418-0.37012,0.99805-0.62695,1.39062
		c-0.25781,0.39355-0.50977,0.69629-0.75586,0.9082c-0.24805,0.21094-0.53711,0.37793-0.87012,0.49902
		C74.92578,46.87231,74.63379,46.94848,74.38184,46.97875z M72.69531,44.76293c0.2168,0.13672,0.48633,0.2041,0.80859,0.2041
		c0.32324,0,0.58984-0.06738,0.80273-0.2041c0.21094-0.13574,0.4082-0.39844,0.58984-0.78613s0.31641-0.97754,0.4082-1.76953
		c0.08984-0.79102,0.13574-1.79199,0.13574-3.00195c0-1.17969-0.0459-2.15723-0.13574-2.93359
		c-0.0918-0.77637-0.23047-1.3584-0.41602-1.74707c-0.1875-0.3877-0.38574-0.65234-0.59766-0.79395
		s-0.47461-0.21191-0.78711-0.21191s-0.57617,0.07031-0.79297,0.21191s-0.41895,0.40625-0.60547,0.79395
		c-0.18652,0.38867-0.32422,0.96777-0.41602,1.73926c-0.08984,0.77148-0.13574,1.75195-0.13574,2.94141
		c0,1.20996,0.04297,2.20801,0.12793,2.99414c0.08594,0.78711,0.22266,1.37598,0.4082,1.76953
		C72.27734,44.36254,72.47852,44.62719,72.69531,44.76293z"/>
</g>
<g class="st1">
	<path class="st2" d="M80.31836,46.85766c-0.11035,0-0.20117-0.0957-0.27148-0.28711s-0.10547-0.44336-0.10547-0.75684V32.80785
		c0-0.77637,0.0957-1.16406,0.28711-1.16406h0.57422c0.11133,0,0.19727,0.07324,0.25781,0.21875
		c0.06055,0.14648,0.125,0.39648,0.19629,0.74902l0.34766,2.05664c0.02051,0.15137,0.05566,0.22656,0.10645,0.22656
		c0.03906,0,0.07031-0.0752,0.08984-0.22656c0.30273-1.06836,0.66602-1.86035,1.08984-2.37402
		c0.42285-0.51465,0.86133-0.78125,1.31445-0.80176h0.24219c0.2627,0,0.43945,0.06543,0.5293,0.19629
		c0.0918,0.13184,0.13672,0.33789,0.13672,0.62012v1.5127c0,0.24219-0.02051,0.39844-0.06055,0.46875
		c-0.04102,0.07031-0.11133,0.10547-0.21191,0.10547c-0.38379,0-0.65039,0.03027-0.80176,0.09082
		c-0.55469,0.16113-0.96777,0.70117-1.24023,1.61816c-0.27148,0.91797-0.4082,1.88574-0.4082,2.9043v6.80469
		c0,0.31348-0.03516,0.56543-0.10547,0.75684s-0.16211,0.28711-0.27246,0.28711H80.31836z"/>
</g>
<g class="st1">
	<path class="st2" d="M94.69336,43.1975c0,1.11914-0.30273,2.03711-0.90723,2.75293s-1.50293,1.07324-2.69238,1.07324
		c-0.47363,0-0.90723-0.05273-1.30078-0.1582c-0.39258-0.10645-0.80078-0.3252-1.22461-0.6582s-0.78125-0.77344-1.07422-1.32324
		c-0.29199-0.5498-0.53125-1.30566-0.71777-2.26855s-0.28027-2.08887-0.28027-3.37988c0-1.30078,0.0918-2.43262,0.27246-3.39551
		c0.18164-0.96289,0.41309-1.71875,0.69629-2.26855c0.28125-0.54883,0.62695-0.9873,1.03516-1.31543
		c0.4082-0.32715,0.79883-0.54199,1.17188-0.64258s0.78711-0.15137,1.24023-0.15137c2.60156,0,3.90234,2.42969,3.90234,7.28906
		c0,0.70605-0.12695,1.05859-0.37891,1.05859h-5.26172c-0.08203,0-0.12109,0.12695-0.12109,0.37891
		c0.00977,1.53223,0.19336,2.71191,0.55176,3.53809c0.35742,0.82715,0.87988,1.24023,1.56543,1.24023
		c0.33203,0,0.6123-0.0752,0.83887-0.22656c0.22754-0.15137,0.39551-0.37305,0.50684-0.66504
		c0.11133-0.29297,0.18945-0.54688,0.23438-0.76465c0.04492-0.21582,0.08301-0.48633,0.11328-0.80859
		c0.03027-0.22168,0.11523-0.33301,0.25781-0.33301h1.22461c0.23145,0,0.34766,0.2627,0.34766,0.78711V43.1975z M89.12793,38.20727
		h3.46387c0.01953,0,0.0293-0.12598,0.0293-0.37793c-0.08008-2.88379-0.65527-4.3252-1.72363-4.3252
		c-0.49414,0-0.90723,0.31738-1.24023,0.95215c-0.33301,0.63574-0.5293,1.63379-0.58984,2.99512
		C89.06738,37.95531,89.08789,38.20727,89.12793,38.20727z"/>
	<path class="st2" d="M100.15234,47.02367c-0.69531,0-1.37305-0.16602-2.0332-0.49902
		c-0.66016-0.33203-1.23828-0.7959-1.73242-1.39062l0.89258-1.73926c0.91797,1.04883,1.8457,1.57227,2.7832,1.57227
		c0.57422,0,1.00977-0.19922,1.30762-0.59668c0.29785-0.39844,0.44629-0.88477,0.44629-1.45996
		c0-0.55469-0.1543-1.01074-0.46094-1.36816c-0.30859-0.3584-0.85938-0.81445-1.65625-1.36914
		c-0.47461-0.33301-0.85449-0.62207-1.14258-0.86914c-0.28711-0.24707-0.56641-0.55273-0.83887-0.91504
		c-0.27246-0.36328-0.47168-0.77441-0.59668-1.23242c-0.12695-0.45898-0.18945-0.99121-0.18945-1.5957
		c0-1.17969,0.32812-2.15723,0.98242-2.93457c0.65625-0.77539,1.5127-1.16406,2.57129-1.16406
		c1.28027,0,2.37988,0.50879,3.29688,1.52734l-0.9375,1.7998c-0.71582-0.78613-1.43652-1.17969-2.16309-1.17969
		c-0.47363,0-0.8418,0.16895-1.10352,0.50684s-0.39258,0.75879-0.39258,1.2627c0,0.56445,0.15625,1.04102,0.46875,1.42871
		c0.3125,0.38867,0.78613,0.78418,1.4209,1.1875c0.4541,0.29297,0.83887,0.5752,1.15723,0.84668
		c0.31738,0.27246,0.625,0.60254,0.92188,0.99121c0.29785,0.3877,0.52246,0.83887,0.67383,1.35352
		c0.15039,0.51367,0.22656,1.09375,0.22656,1.73926c0,1.26953-0.33984,2.27051-1.02148,3.00195
		C102.35352,46.65844,101.39258,47.02367,100.15234,47.02367z"/>
	<path class="st2" d="M114.21777,43.1975c0,1.11914-0.30273,2.03711-0.90723,2.75293
		c-0.60547,0.71582-1.50195,1.07324-2.69238,1.07324c-0.47363,0-0.90723-0.05273-1.2998-0.1582
		c-0.39355-0.10645-0.80273-0.3252-1.22559-0.6582s-0.78125-0.77344-1.07324-1.32324
		c-0.29297-0.5498-0.53223-1.30566-0.71875-2.26855c-0.1875-0.96289-0.2793-2.08887-0.2793-3.37988
		c0-1.30078,0.08984-2.43262,0.27148-3.39551s0.41406-1.71875,0.69531-2.26855c0.2832-0.54883,0.62793-0.9873,1.03711-1.31543
		c0.4082-0.32715,0.79883-0.54199,1.17188-0.64258s0.78613-0.15137,1.24023-0.15137c2.60059,0,3.90137,2.42969,3.90137,7.28906
		c0,0.70605-0.12598,1.05859-0.37793,1.05859h-5.26367c-0.08008,0-0.12109,0.12695-0.12109,0.37891
		c0.00977,1.53223,0.19434,2.71191,0.55273,3.53809c0.35742,0.82715,0.87891,1.24023,1.56445,1.24023
		c0.33398,0,0.61328-0.0752,0.83984-0.22656s0.39551-0.37305,0.50684-0.66504c0.11035-0.29297,0.18848-0.54688,0.23438-0.76465
		c0.0459-0.21582,0.08301-0.48633,0.11328-0.80859c0.03027-0.22168,0.11621-0.33301,0.25684-0.33301h1.22559
		c0.23145,0,0.34766,0.2627,0.34766,0.78711V43.1975z M108.65234,38.20727h3.46289c0.02051,0,0.03125-0.12598,0.03125-0.37793
		c-0.08203-2.88379-0.65625-4.3252-1.72461-4.3252c-0.49414,0-0.9082,0.31738-1.24023,0.95215
		c-0.33203,0.63574-0.5293,1.63379-0.58984,2.99512C108.5918,37.95531,108.61133,38.20727,108.65234,38.20727z"/>
	<path class="st2" d="M117.25684,46.85766c-0.12012,0-0.21387-0.04785-0.28027-0.14355
		c-0.06445-0.0957-0.09766-0.29492-0.09766-0.59766V32.55102c0-0.60449,0.12109-0.90722,0.36328-0.90722h0.65039
		c0.14062,0,0.25684,0.04492,0.34766,0.13574s0.16113,0.28222,0.21094,0.57519l0.30273,1.90527
		c0.02051,0.11133,0.05566,0.16602,0.10645,0.16602c0.04004,0,0.07031-0.0498,0.09082-0.15137
		c0.1709-0.58398,0.39062-1.07324,0.6582-1.4668c0.2666-0.39258,0.56152-0.68262,0.88477-0.86914
		c0.32227-0.18652,0.62695-0.3125,0.91406-0.37793s0.60742-0.09863,0.96094-0.09863c0.55469,0,1.0332,0.10059,1.43652,0.30273
		c0.40332,0.20117,0.76367,0.54199,1.08105,1.02051c0.31836,0.47949,0.55664,1.1543,0.71875,2.02637
		c0.16016,0.87207,0.24219,1.93848,0.24219,3.19922v8.10547c0,0.30273-0.03125,0.50195-0.0918,0.59766
		s-0.15625,0.14355-0.28711,0.14355h-1.93555c-0.13086,0-0.22656-0.04785-0.28711-0.14355s-0.09082-0.29492-0.09082-0.59766
		v-8.43848c0-1.42188-0.1084-2.4707-0.3252-3.14551c-0.2168-0.67578-0.57227-1.01367-1.06641-1.01367
		c-0.625,0-1.14453,0.40625-1.55762,1.21777s-0.62012,1.82715-0.62012,3.04688v8.33301c0,0.30273-0.0332,0.50195-0.09766,0.59766
		c-0.06641,0.0957-0.15918,0.14355-0.28027,0.14355H117.25684z"/>
</g>
</svg>
